<?xml version="1.0" encoding="UTF-8" standalone="no"?>
<!-- Created with Inkscape (http://www.inkscape.org/) -->

<svg
   width="512"
   height="512"
   viewBox="0 0 512 512"
   version="1.1"
   id="svg1"
   xml:space="preserve"
   inkscape:version="1.3.2 (091e20e, 2023-11-25, custom)"
   sodipodi:docname="OperatorSymbol.svg"
   inkscape:export-filename="..\icons\win\OperatorIcon.png"
   inkscape:export-xdpi="96"
   inkscape:export-ydpi="96"
   xmlns:inkscape="http://www.inkscape.org/namespaces/inkscape"
   xmlns:sodipodi="http://sodipodi.sourceforge.net/DTD/sodipodi-0.dtd"
   xmlns="http://www.w3.org/2000/svg"
   xmlns:svg="http://www.w3.org/2000/svg"><sodipodi:namedview
     id="namedview1"
     pagecolor="#000000"
     bordercolor="#666666"
     borderopacity="1.0"
     inkscape:showpageshadow="2"
     inkscape:pageopacity="0.0"
     inkscape:pagecheckerboard="0"
     inkscape:deskcolor="#d1d1d1"
     inkscape:document-units="px"
     showgrid="true"
     showguides="false"
     inkscape:zoom="1.1501274"
     inkscape:cx="246.49442"
     inkscape:cy="250.84177"
     inkscape:window-width="1920"
     inkscape:window-height="1009"
     inkscape:window-x="-8"
     inkscape:window-y="-8"
     inkscape:window-maximized="1"
     inkscape:current-layer="svg1"><inkscape:grid
       id="grid1"
       units="px"
       originx="0"
       originy="0"
       spacingx="1"
       spacingy="1"
       empcolor="#0099e5"
       empopacity="0.30196078"
       color="#0099e5"
       opacity="0.14901961"
       empspacing="16"
       dotted="false"
       gridanglex="30"
       gridanglez="30"
       visible="true" /></sodipodi:namedview><defs
     id="defs1" /><g
     inkscape:label="Layer 1"
     inkscape:groupmode="layer"
     id="layer1" /><path
     id="rect8"
     style="display:inline;opacity:1;fill:#ffffff;fill-opacity:1;stroke:none;stroke-width:6.98362;stroke-dasharray:none;stroke-opacity:1;paint-order:stroke fill markers"
     d="m 228.64677,47.439227 -14.79371,1.728291 -14.79368,1.726305 -12.65733,2.989568 -12.65905,2.987614 -11.79747,4.606132 -11.7975,4.606115 -9.16551,5.232787 -9.16727,5.234761 -8.03251,6.256599 -8.03254,6.256572 -8.00275,8.677401 -8.000988,8.677378 -5.552892,8.18246 c -3.053458,4.50084 -7.415362,11.63096 -9.694371,15.84603 -2.278975,4.21503 -5.800954,11.69377 -7.825871,16.61835 -2.024929,4.92456 -5.232646,14.35087 -7.128926,20.94709 -1.89628,6.59623 -4.268169,16.36052 -5.270966,21.69947 -1.002796,5.33896 -2.25472,14.1726 -2.78082,19.62993 -0.526101,5.45727 -0.956124,11.78403 -0.956124,14.05985 v 4.13912 l 41.018908,-0.26541 41.01892,-0.26746 0.64266,-8.17445 c 0.35352,-4.49592 1.49303,-12.71605 2.53218,-18.2688 1.03913,-5.55282 3.11688,-14.05937 4.61601,-18.9035 1.49914,-4.84409 3.94258,-11.55843 5.43033,-14.92003 1.48772,-3.36151 4.56583,-9.33911 6.83997,-13.28351 l 4.13446,-7.1726 6.28138,-7.27444 6.28311,-7.27638 6.58082,-4.83962 c 3.61949,-2.66147 9.64476,-6.45225 13.38927,-8.42395 l 6.80849,-3.58431 10.25646,-2.95367 10.2565,-2.95167 10.87289,-1.14154 10.87286,-1.14158 14.34542,0.53888 14.34542,0.53884 9.60153,2.16933 c 5.28048,1.19246 12.64903,3.3018 16.37501,4.68796 3.72595,1.38614 9.69322,4.18931 13.26144,6.23062 3.56823,2.04132 9.40906,6.00789 12.97953,8.8131 l 6.4915,5.10108 5.75776,6.95509 c 3.16683,3.82582 7.43147,9.76336 9.47548,13.19371 2.04403,3.43031 5.49721,10.47671 7.67353,15.65843 l 3.95584,9.41981 2.29051,9.14839 c 1.25999,5.03061 2.87806,13.53719 3.59511,18.90349 0.71705,5.36623 1.53809,11.93919 1.82471,14.60866 l 0.52184,4.85358 h 39.78958 39.79136 l 0.46233,-0.85217 0.46053,-0.85216 -0.85981,-9.62136 c -0.47315,-5.29172 -1.70819,-14.44945 -2.7458,-20.35036 l -1.88774,-10.72902 -3.07151,-10.70505 -3.07152,-10.70704 -5.26745,-12.28365 -5.26921,-12.28568 -5.65623,-9.70719 -5.65445,-9.70717 L 405.75271,105.85798 393.61898,91.99766 383.30823,84.204388 372.99747,76.4111 362.6867,70.795133 352.37594,65.179168 341.6169,61.113866 330.85782,57.048616 319.78707,54.39032 c -6.0893,-1.462001 -15.16726,-3.370809 -20.17323,-4.24293 L 290.51136,48.560788 259.57906,48 Z m 21.87711,86.075433 -2.45337,1.44491 -2.4516,1.4449 -1.01741,2.38689 c -0.55925,1.31242 -5.54609,22.84864 -11.08303,47.85738 -5.53695,25.00876 -10.75764,48.68922 -11.59958,52.62317 l -1.53056,7.15268 -1.02615,-2.87782 c -0.56451,-1.58207 -1.03061,-3.19144 -1.03492,-3.57636 -0.005,-0.38487 -2.41084,-9.89477 -5.34976,-21.13468 l -5.34451,-20.43618 -2.32026,-2.29906 -2.31853,-2.29908 h -3.12931 -3.12928 l -2.0121,2.29908 -2.01031,2.29906 -8.39501,18.39258 c -4.61665,10.11539 -9.34635,20.11488 -10.5104,22.22233 l -2.11713,3.8318 H 2.497442 -1.189182 v 9.70719 9.70719 H 5.603971 177.90549 l 2.32027,-1.20344 2.32028,-1.20542 4.34282,-8.24635 c 2.38884,-4.5357 5.59606,-10.94471 7.12545,-14.24145 l 2.78082,-5.99314 0.37475,1.39501 c 0.20695,0.76774 1.86503,7.14268 3.6844,14.16761 1.81939,7.02496 5.10939,19.89976 7.31106,28.61068 l 4.00313,15.83804 1.33437,2.34097 1.33438,2.33899 2.99972,1.6305 2.9997,1.63049 2.45163,-0.70246 2.44985,-0.70047 2.35181,-2.7581 2.35002,-2.7581 10.75906,-49.78924 c 5.91748,-27.38504 10.97867,-49.801 11.24763,-49.81321 0.26894,-0.0116 1.33749,3.76953 2.37279,8.40597 1.03534,4.6365 7.99898,35.78893 15.47491,69.22758 7.47594,33.43869 14.00826,62.60636 14.51703,64.81503 l 0.92459,4.01539 2.7073,2.88182 2.70553,2.87982 h 3.37095 3.37096 l 2.37104,-2.12544 2.37108,-2.12544 6.33915,-14.98988 c 3.48631,-8.24421 11.20188,-26.71513 17.1455,-41.04597 5.94363,-14.33088 10.90857,-26.19469 11.03398,-26.36546 0.12544,-0.17079 1.58488,0.63199 3.24315,1.78417 l 3.01547,2.0955 76.43413,0.005 h 93.34498 v -19.41122 h -91.02652 l -72.97037,3e-4 -5.78229,-6.13084 -5.7823,-6.13086 h -3.56007 -3.55835 l -2.24496,2.29905 -2.24498,2.29908 -4.00312,10.21811 c -2.20252,5.6199 -8.44127,20.94315 -13.86383,34.05297 -5.42258,13.10986 -10.00273,24.00068 -10.17769,24.20013 -0.17497,0.19937 -8.38164,-36.50719 -18.23646,-81.5691 l -17.91777,-81.93037 -2.82461,-3.32089 -2.82461,-3.32087 h -2.8232 z m -189.987388,147.04873 0.01586,6.94311 0.01746,6.94114 1.336133,10.71102 c 0.734606,5.89096 2.512698,16.04447 3.952331,22.56363 l 2.617966,11.85456 3.698434,10.64518 c 2.034279,5.85473 5.324732,14.09179 7.312804,18.30674 1.988049,4.21499 5.761297,11.34208 8.384487,15.83806 2.623201,4.49596 7.803502,12.09363 11.512055,16.88382 l 6.743668,8.7093 8.01502,7.49591 c 4.40809,4.12179 10.99366,9.76679 14.63609,12.5451 l 6.62284,5.05118 10.75906,5.98118 10.75906,5.97919 9.86248,3.6322 c 5.42435,1.99699 13.09019,4.53921 17.03517,5.64991 3.94498,1.11068 12.41776,2.9777 18.82836,4.14908 6.41061,1.17138 16.49722,2.51569 22.41469,2.98762 5.9175,0.4719 17.41624,0.91908 25.55275,0.99384 l 14.79373,0.13561 14.55205,-1.00785 c 8.00393,-0.5548 18.69577,-1.71747 23.75958,-2.58246 5.06383,-0.86497 13.2259,-2.50353 18.13667,-3.64217 4.91075,-1.13867 13.38351,-3.70647 18.82835,-5.70577 5.4448,-1.99929 14.19847,-5.82205 19.45349,-8.49578 5.25505,-2.67372 13.00183,-7.23482 17.21379,-10.13427 4.21198,-2.89949 11.20801,-8.40569 15.54845,-12.23576 l 7.89242,-6.96306 8.85207,-10.52747 8.85382,-10.52941 5.75601,-10.01253 c 3.16624,-5.50729 7.57051,-14.17266 9.78719,-19.25674 l 4.03114,-9.24417 3.95059,-13.53895 3.95234,-13.53899 1.82995,-10.21809 c 1.00685,-5.61995 2.29459,-15.35293 2.86137,-21.62964 l 1.03144,-11.41152 -0.55688,-1.65046 -0.5551,-1.64847 -33.41368,0.0658 c -18.37806,0.0365 -36.31879,0.343 -39.86666,0.68054 l -6.44945,0.61469 -0.55864,5.73767 c -0.30697,3.1568 -1.16141,9.64813 -1.89823,14.4251 l -1.33966,8.68538 -3.08901,10.58328 -3.09079,10.58133 -4.09592,9.03863 -4.09594,9.03862 -4.30782,6.48411 c -2.36924,3.5668 -6.67577,9.14548 -9.57004,12.3974 -2.89424,3.25194 -7.7045,7.92089 -10.69076,10.37376 l -5.43032,4.45844 -8.46681,4.63208 -8.46854,4.63004 -8.5176,2.58249 -8.51758,2.58047 -10.13214,1.52471 -10.13215,1.52476 h -11.45427 -11.45426 l -9.79418,-1.11962 -9.79419,-1.11958 -8.51757,-2.50464 -8.51758,-2.50465 -9.86247,-5.40637 -9.86248,-5.40441 -7.34606,-6.33046 -7.34607,-6.32842 -4.84017,-6.35437 c -2.66238,-3.49454 -6.46316,-9.11333 -8.44579,-12.4853 -1.98265,-3.37194 -4.8935,-9.04039 -6.46699,-12.59697 -1.57349,-3.5566 -4.23368,-11.14353 -5.91189,-16.85985 l -3.0505,-10.39373 -1.35187,-9.19629 c -0.74298,-5.05795 -1.66893,-11.95517 -2.05936,-15.32712 l -0.71097,-6.13087 -40.56536,-0.29934 z"
     sodipodi:nodetypes="ccccccccccccccsssssscccssssccccccccccccccsscccscccsccccccccccccccccccccccccccccccccscccccccccccccccccccccccccccsscccccccccccsscccccccccssccccccccccccccssscccccccccsccssccccccccssscccsssssccccccccccccccccccsccccccscccccccccccccccccccssccccccc" /></svg>
